<svg width="96" height="96" viewBox="0 0 96 96" fill="none" xmlns="http://www.w3.org/2000/svg">
<g clip-path="url(#clip0_1_603)">
<path d="M22.8589 67.6199C20.4774 67.6199 18.4535 68.4532 16.7867 70.1199C15.1204 71.788 14.2867 73.8114 14.2867 76.193C14.2867 78.5748 15.1198 80.5982 16.7867 82.2663C18.4542 83.9329 20.478 84.7663 22.8589 84.7663C25.2005 84.7663 27.2141 83.9329 28.9009 82.2663C30.5872 80.6002 31.4303 78.5748 31.4303 76.193C31.4303 73.8114 30.5874 71.7895 28.9009 70.1199C27.2139 68.4547 25.2005 67.6199 22.8589 67.6199Z" fill="url(#paint0_linear_1_603)"/>
<path d="M20.9541 49.525C20.9541 46.9059 20.022 44.6645 18.1566 42.7977C16.2915 40.9325 14.049 40.0002 11.4299 40.0002C8.81066 40.0002 6.56857 40.9327 4.70322 42.7977C2.83828 44.663 1.90591 46.9051 1.90591 49.525C1.90591 52.1436 2.83807 54.3847 4.70322 56.2504C6.56857 58.1162 8.81066 59.0488 11.4299 59.0488C14.049 59.0488 16.2915 58.1162 18.1566 56.2504C20.022 54.3859 20.9541 52.1436 20.9541 49.525Z" fill="url(#paint1_linear_1_603)"/>
<path d="M76.1932 27.6208C77.5017 27.6208 78.6246 27.1538 79.5559 26.2216C80.4885 25.2886 80.9557 24.1672 80.9557 22.8578C80.9557 21.5479 80.4885 20.4273 79.5559 19.4949C78.624 18.5619 77.5017 18.0957 76.1932 18.0957C74.8833 18.0957 73.7616 18.5627 72.829 19.4949C71.8971 20.4275 71.4307 21.5479 71.4307 22.8578C71.4307 24.1678 71.8971 25.2886 72.829 26.2216C73.7616 27.1546 74.8833 27.6208 76.1932 27.6208Z" fill="url(#paint2_linear_1_603)"/>
<path d="M22.8593 12.3819C19.962 12.3819 17.4918 13.4039 15.448 15.4473C13.4039 17.4907 12.3825 19.9611 12.3825 22.8578C12.3825 25.7556 13.4039 28.225 15.448 30.2692C17.4924 32.3132 19.9626 33.335 22.8593 33.335C25.7561 33.335 28.2265 32.3126 30.2699 30.2692C32.3133 28.225 33.3353 25.755 33.3353 22.8578C33.3353 19.9611 32.3133 17.4907 30.2699 15.4473C28.2265 13.4039 25.7561 12.3819 22.8593 12.3819Z" fill="url(#paint3_linear_1_603)"/>
<path d="M91.6693 45.4769C90.5585 44.3656 89.2094 43.8106 87.6226 43.8106C86.0343 43.8106 84.6852 44.3656 83.5743 45.4769C82.4641 46.5881 81.9091 47.9377 81.9091 49.5259C81.9091 51.1125 82.4641 52.464 83.5743 53.5727C84.6858 54.6844 86.0343 55.2394 87.6226 55.2394C89.2094 55.2394 90.5593 54.6844 91.6693 53.5727C92.781 52.4627 93.3354 51.1125 93.3354 49.5259C93.3354 47.9385 92.7818 46.5887 91.6693 45.4769Z" fill="url(#paint4_linear_1_603)"/>
<path d="M76.1933 69.5255C74.3667 69.5255 72.7993 70.1797 71.4894 71.4897C70.1809 72.7981 69.5258 74.3664 69.5258 76.193C69.5258 78.0181 70.1809 79.5863 71.4894 80.8965C72.7993 82.2062 74.3669 82.8598 76.1933 82.8598C78.0184 82.8598 79.5858 82.205 80.8958 80.8965C82.2057 79.5866 82.8602 78.0189 82.8602 76.193C82.8602 74.3664 82.2057 72.7998 80.8958 71.4897C79.5861 70.1795 78.0184 69.5255 76.1933 69.5255Z" fill="url(#paint5_linear_1_603)"/>
<path d="M49.5258 80.001C47.4225 80.001 45.6266 80.7466 44.1376 82.235C42.65 83.7234 41.9057 85.5183 41.9057 87.6217C41.9057 89.7252 42.6492 91.5203 44.1376 93.0085C45.6266 94.4969 47.4217 95.2418 49.5258 95.2418C51.6292 95.2418 53.4243 94.4969 54.9127 93.0085C56.4011 91.5203 57.1452 89.7252 57.1452 87.6217C57.1452 85.5183 56.4011 83.7234 54.9127 82.235C53.4243 80.7466 51.6292 80.001 49.5258 80.001Z" fill="url(#paint6_linear_1_603)"/>
<path d="M49.5261 0C46.3518 0 43.6521 1.11062 41.4296 3.33291C39.2077 5.55541 38.0967 8.25451 38.0967 11.429C38.0967 14.6036 39.2073 17.3015 41.4296 19.5242C43.6521 21.7461 46.3512 22.8573 49.5261 22.8573C52.7018 22.8573 55.3996 21.7467 57.6213 19.5242C59.8429 17.3025 60.954 14.6036 60.954 11.429C60.954 8.25472 59.8429 5.55624 57.6213 3.33291C55.3996 1.11125 52.7018 0 49.5261 0Z" fill="url(#paint7_linear_1_603)"/>
</g>
<defs>
<linearGradient id="paint0_linear_1_603" x1="15.4351" y1="80.4797" x2="30.2831" y2="71.9085" gradientUnits="userSpaceOnUse">
<stop stop-color="#C238CC"/>
<stop offset="1" stop-color="#7C1DB8"/>
</linearGradient>
<linearGradient id="paint1_linear_1_603" x1="3.1819" y1="54.2866" x2="19.6783" y2="44.7626" gradientUnits="userSpaceOnUse">
<stop stop-color="#C238CC"/>
<stop offset="1" stop-color="#7C1DB8"/>
</linearGradient>
<linearGradient id="paint2_linear_1_603" x1="72.0687" y1="25.2395" x2="80.3177" y2="20.477" gradientUnits="userSpaceOnUse">
<stop stop-color="#C238CC"/>
<stop offset="1" stop-color="#7C1DB8"/>
</linearGradient>
<linearGradient id="paint3_linear_1_603" x1="13.7861" y1="28.0967" x2="31.9319" y2="17.6205" gradientUnits="userSpaceOnUse">
<stop stop-color="#C238CC"/>
<stop offset="1" stop-color="#7C1DB8"/>
</linearGradient>
<linearGradient id="paint4_linear_1_603" x1="82.6745" y1="52.3822" x2="92.571" y2="46.6697" gradientUnits="userSpaceOnUse">
<stop stop-color="#C238CC"/>
<stop offset="1" stop-color="#7C1DB8"/>
</linearGradient>
<linearGradient id="paint5_linear_1_603" x1="70.4191" y1="79.5262" x2="81.9669" y2="72.8591" gradientUnits="userSpaceOnUse">
<stop stop-color="#C238CC"/>
<stop offset="1" stop-color="#7C1DB8"/>
</linearGradient>
<linearGradient id="paint6_linear_1_603" x1="42.9266" y1="91.4316" x2="56.1249" y2="83.8122" gradientUnits="userSpaceOnUse">
<stop stop-color="#C238CC"/>
<stop offset="1" stop-color="#7C1DB8"/>
</linearGradient>
<linearGradient id="paint7_linear_1_603" x1="39.6278" y1="17.143" x2="59.4228" y2="5.71433" gradientUnits="userSpaceOnUse">
<stop stop-color="#C238CC"/>
<stop offset="1" stop-color="#7C1DB8"/>
</linearGradient>
<clipPath id="clip0_1_603">
<rect width="95.2415" height="95.2415" fill="white"/>
</clipPath>
</defs>
</svg>
